<?xml version="1.0" encoding="UTF-8" standalone="no"?>
<svg
   xmlns:dc="http://purl.org/dc/elements/1.1/"
   xmlns:cc="http://creativecommons.org/ns#"
   xmlns:rdf="http://www.w3.org/1999/02/22-rdf-syntax-ns#"
   xmlns:svg="http://www.w3.org/2000/svg"
   xmlns="http://www.w3.org/2000/svg"
   xmlns:sodipodi="http://sodipodi.sourceforge.net/DTD/sodipodi-0.dtd"
   xmlns:inkscape="http://www.inkscape.org/namespaces/inkscape"
   version="1.1"
   height="453.021655097305"
   width="434.5879974365235"
   viewBox="0 0 434.5879974365235 453.021655097305"
   id="svg50"
   sodipodi:docname="icon-square.svg"
   inkscape:version="0.92.2 5c3e80d, 2017-08-06"
   inkscape:export-filename="/home/aron/Programming/GitHub/cogitare/docs/source/art/icon-square.png"
   inkscape:export-xdpi="96"
   inkscape:export-ydpi="96">
  <metadata
     id="metadata54">
    <rdf:RDF>
      <cc:Work
         rdf:about="">
        <dc:format>image/svg+xml</dc:format>
        <dc:type
           rdf:resource="http://purl.org/dc/dcmitype/StillImage" />
        <dc:title></dc:title>
      </cc:Work>
    </rdf:RDF>
  </metadata>
  <sodipodi:namedview
     pagecolor="#002842"
     bordercolor="#666666"
     borderopacity="1"
     objecttolerance="10"
     gridtolerance="10"
     guidetolerance="10"
     inkscape:pageopacity="1"
     inkscape:pageshadow="2"
     inkscape:window-width="1920"
     inkscape:window-height="1034"
     id="namedview52"
     showgrid="false"
     inkscape:zoom="1.4734589"
     inkscape:cx="67.835825"
     inkscape:cy="269.44849"
     inkscape:window-x="1920"
     inkscape:window-y="22"
     inkscape:window-maximized="0"
     inkscape:current-layer="svg50" />
  <defs
     id="SvgjsDefs2078" />
  <text
     xml:space="preserve"
     style="font-style:normal;font-weight:normal;font-size:40px;line-height:1.25;font-family:sans-serif;letter-spacing:0px;word-spacing:0px;fill:#000000;fill-opacity:1;stroke:none"
     x="47.71172"
     y="317.57483"
     id="text33"><tspan
       sodipodi:role="line"
       id="tspan31"
       x="47.71172"
       y="317.57483"
       style="font-style:normal;font-variant:normal;font-weight:normal;font-stretch:normal;font-size:66.66666412px;font-family:Arkhip;-inkscape-font-specification:Arkhip;fill:#ffffff">Cogitare</tspan></text>
  <g
     id="g175"
     transform="translate(0,-34)">
    <g
       transform="translate(0,29.480005)"
       id="g157">
      <polyline
         style="fill:#ffffff"
         id="polyline8"
         points="66,49 57.7,34.7 66,20.4 82.6,20.4 90.9,34.7 82.6,49 66,49     "
         transform="matrix(1.452381,0,0,1.452381,144.60233,124.33916)" />
      <polyline
         style="fill:#ffffff"
         id="polyline10"
         points="66,79.7 57.7,65.4 66,51 82.6,51 90.9,65.4 82.6,79.7 66,79.7     "
         transform="matrix(1.452381,0,0,1.452381,144.60233,124.33916)" />
      <polyline
         style="fill:#ffffff"
         id="polyline12"
         points="40.6,31.8 33.5,19.4 40.6,7 54.9,7 62.1,19.4 54.9,31.8 40.6,31.8     "
         transform="matrix(1.452381,0,0,1.452381,144.60233,124.33916)" />
      <polyline
         style="fill:#ffffff"
         id="polyline14"
         points="40.6,62.4 33.5,50 40.6,37.7 54.9,37.7 62.1,50 54.9,62.4 40.6,62.4     "
         transform="matrix(1.452381,0,0,1.452381,144.60233,124.33916)" />
      <polyline
         style="fill:#ffffff"
         id="polyline16"
         points="40.6,93.1 33.5,80.7 40.6,68.3 54.9,68.3 62.1,80.7 54.9,93.1 40.6,93.1     "
         transform="matrix(1.452381,0,0,1.452381,144.60233,124.33916)" />
      <polyline
         style="fill:#ffffff"
         id="polyline18"
         points="15.2,45.1 9.2,34.7 15.2,24.3 27.2,24.3 33.2,34.7 27.2,45.1 15.2,45.1     "
         transform="matrix(1.452381,0,0,1.452381,144.60233,124.33916)" />
      <polyline
         style="fill:#ffffff"
         id="polyline20"
         points="9.2,65.4 15.2,54.9 27.2,54.9 33.2,65.4 27.2,75.8 15.2,75.8 9.2,65.4     "
         transform="matrix(1.452381,0,0,1.452381,144.60233,124.33916)" />
      <polyline
         style="fill:#ffffff"
         id="polyline24"
         points="66,49 57.7,34.7 66,20.4 82.6,20.4 90.9,34.7 82.6,49 66,49     "
         transform="matrix(1.452381,0,0,1.452381,144.60233,124.33916)" />
      <polyline
         style="fill:#ffffff"
         id="polyline26"
         points="66,79.7 57.7,65.4 66,51 82.6,51 90.9,65.4 82.6,79.7 66,79.7     "
         transform="matrix(1.452381,0,0,1.452381,144.60233,124.33916)" />
      <polyline
         style="fill:#ffffff"
         id="polyline28"
         points="40.6,31.8 33.5,19.4 40.6,7 54.9,7 62.1,19.4 54.9,31.8 40.6,31.8     "
         transform="matrix(1.452381,0,0,1.452381,144.60233,124.33916)" />
      <polyline
         style="fill:#ffffff"
         id="polyline30"
         points="40.6,62.4 33.5,50 40.6,37.7 54.9,37.7 62.1,50 54.9,62.4 40.6,62.4     "
         transform="matrix(1.452381,0,0,1.452381,144.60233,124.33916)" />
      <polyline
         style="fill:#ffffff"
         id="polyline32"
         points="40.6,93.1 33.5,80.7 40.6,68.3 54.9,68.3 62.1,80.7 54.9,93.1 40.6,93.1     "
         transform="matrix(1.452381,0,0,1.452381,144.60233,124.33916)" />
      <polyline
         style="fill:#ffffff"
         id="polyline34"
         points="15.2,45.1 9.2,34.7 15.2,24.3 27.2,24.3 33.2,34.7 27.2,45.1 15.2,45.1     "
         transform="matrix(1.452381,0,0,1.452381,144.60233,124.33916)" />
      <polyline
         style="fill:#ffffff"
         id="polyline36"
         points="9.2,65.4 15.2,54.9 27.2,54.9 33.2,65.4 27.2,75.8 15.2,75.8 9.2,65.4     "
         transform="matrix(1.452381,0,0,1.452381,144.60233,124.33916)" />
    </g>
    <polyline
       style="fill:#ffffff"
       id="polyline119"
       points="9.2,65.4 15.2,54.9 27.2,54.9 33.2,65.4 27.2,75.8 15.2,75.8 9.2,65.4     "
       transform="matrix(1.3392685,0,0,1.3392685,111.3387,138.98964)" />
  </g>
  <g
     id="g1487"
     transform="matrix(0.97986827,0,0,0.97986827,3.3203574,4.5197285)">
    <path
       d="m 317.61303,416.82605 a 211.66731,211.66731 0 0 0 53.84631,-38.24701 204.13765,204.13765 0 0 0 27.14927,-32.82583 l 6.1324,-9.43846 2.17882,-3.18224 1.6665,-3.47803 5.10774,-10.03005 a 204.13765,204.13765 0 0 0 14.85337,-39.92487 211.66731,211.66731 0 0 0 6.60378,-65.86405 216.26878,216.26878 0 0 0 -21.38678,-83.04906 218.77867,218.77867 0 0 0 -26.6722,-41.357211 213.34057,213.34057 0 0 0 -114.14887,-72.051821 c -4.69022,-1.341688 -9.67623,-2.171049 -14.25818,-3.108675 -4.58195,-0.937627 -9.56796,-1.766987 -14.84977,-2.084017 a 208.73911,208.73911 0 0 0 -27.10887,-0.964555 c -5.17354,0.08703 -9.94301,0.06579 -15.00829,0.556887 A 203.30102,203.30102 45 0 0 99.419319,46.983263 200.79113,200.79113 0 0 0 50.18397,87.892404 203.30102,203.30102 45 0 0 1.8847181,190.47993 l -1.89649795,13.93338 -0.6842997,13.60857 a 199.53618,199.53618 0 0 0 1.16401803,26.9716 205.39259,205.39259 45 0 0 12.72535752,50.72417 201.62776,201.62776 45 0 0 23.764509,43.43554 207.90248,207.90248 0 0 0 14.923341,18.52101 l 4.56071,5.70711 9.821284,10.7936 a 211.66731,211.66731 0 0 0 21.229797,19.42964 217.94204,217.94204 0 0 0 47.459063,28.42516 213.34057,213.34057 0 0 0 50.38022,15.08337 218.77867,218.77867 0 0 0 49.15249,2.42021 216.26878,216.26878 0 0 0 83.12832,-22.70724 z M 55.575713,360.14882 48.936671,351.53402 A 213.34057,213.34057 0 0 1 25.994712,139.84639 200.37281,200.37281 0 0 0 15.369478,177.7722 200.79113,200.79113 0 0 0 8.9532202,242.71986 203.30102,203.30102 45 0 0 47.478941,349.32619 l 8.609098,11.11842 7.959497,8.69405 z M 96.728168,49.869711 103.86399,45.792317 A 215.43215,215.43215 0 0 0 63.351698,80.466479 c 3.686794,-4.019373 7.373589,-8.038746 11.16866,-11.654062 3.795062,-3.615312 6.594481,-6.097699 10.093754,-9.200683 3.499273,-3.102985 7.106805,-5.801906 10.714346,-8.500829 z M 36.571785,129.21699 A 201.20944,201.20944 0 0 1 232.458,29.524653 c 4.47369,0.533567 9.05564,1.471193 13.52932,2.004758 4.47369,0.533566 9.05564,1.471193 13.34179,2.92115 a 199.11787,199.11787 0 0 1 25.60867,8.295676 208.73911,208.73911 0 0 1 45.78481,25.40921 l 7.09335,5.461558 a 197.02629,197.02629 0 0 1 20.55895,21.774739 l 8.20503,11.226676 7.39692,11.44322 a 199.11787,199.11787 0 0 1 12.47773,23.9401 208.3208,208.3208 0 0 1 14.23334,49.88705 200.79113,200.79113 0 0 1 1.54115,49.39026 204.97428,204.97428 0 0 1 -9.59281,45.01138 203.30102,203.30102 45 0 1 -40.63195,69.785 197.02629,197.02629 0 0 1 -29.8772,27.49379 199.53618,199.53618 0 0 1 -96.3753,31.45362 199.11787,199.11787 0 0 1 -61.79443,-5.96195 192.00652,192.00652 45 0 1 -37.47149,-13.77847 l -9.51772,-4.81195 -3.07397,-1.77476 -3.07398,-1.77475 -9.43846,-6.13241 A 192.42483,192.42483 0 0 1 70.713496,355.22652 199.11787,199.11787 0 0 1 34.65309,304.69195 203.71933,203.71933 0 0 1 13.461606,227.22049 206.22922,206.22922 0 0 1 15.37725,184.26619 200.37281,200.37281 0 0 1 36.571785,129.21699 Z M 285.82517,41.209248 a 200.79113,200.79113 0 0 0 -26.01274,-8.187406 c -4.28615,-1.449957 -9.1639,-1.875254 -13.34179,-2.921149 C 242.29274,29.0548 237.415,28.6295 232.53726,28.204201 A 202.8827,202.8827 0 0 0 35.547127,128.6254 201.20944,201.20944 0 0 0 17.865325,169.30815 207.90248,207.90248 0 0 1 29.544233,133.69844 l 4.89121,-10.83816 2.070549,-3.5863 A 212.92226,212.92226 0 0 1 122.68857,36.850642 197.44461,197.44461 0 0 1 149.62339,27.468122 200.79113,200.79113 0 0 1 316.31936,56.42421 214.1772,214.1772 0 0 0 285.82517,41.209248 Z M 65.880317,369.51371 56.679626,359.41996 48.178797,348.7056 a 202.04607,202.04607 0 0 1 -38.013398,-106.31054 198.28124,198.28124 0 0 1 3.120061,-49.77309 207.06585,207.06585 0 0 0 -0.740245,34.41098 204.13765,204.13765 0 0 0 21.299752,77.87554 199.9545,199.9545 0 0 0 36.464472,50.42629 192.84315,192.84315 0 0 0 31.072311,25.45377 l 8.92613,5.83661 3.07397,1.77476 3.07398,1.77476 9.51771,4.81195 a 192.84315,192.84315 0 0 0 37.57977,14.18252 199.9545,199.9545 0 0 0 61.9027,6.36601 204.55596,204.55596 0 0 0 78.09205,-20.49162 l 5.73612,-2.83621 -5.62785,3.24026 a 192.42483,192.42483 0 0 1 -36.65352,16.75043 c -4.3364,1.595 -7.97296,2.56941 -9.99326,3.11075 l -6.86903,1.84055 c -2.42437,0.64961 -5.65686,1.51575 -10.2098,2.30264 a 192.00652,192.00652 45 0 1 -39.60577,4.11626 199.53618,199.53618 0 0 1 -61.66492,-10.32736 204.13765,204.13765 0 0 1 -61.637984,-32.85429 z m 72.483933,44.23948 a 199.53618,199.53618 0 0 0 61.55665,9.9233 192.42483,192.42483 0 0 0 40.11809,-3.82047 c 4.55294,-0.78688 8.18948,-1.76129 10.20979,-2.30263 l 7.27311,-1.94882 c 2.42436,-0.64961 5.65685,-1.51575 9.99325,-3.11076 a 192.42483,192.42483 0 0 0 36.65352,-16.75043 l 10.04351,-6.15571 a 207.06585,207.06585 0 0 0 28.59354,-19.35454 202.46439,202.46439 0 0 0 59.91083,-81.87992 l 4.75393,-12.96674 -1.34168,4.69022 a 192.42483,192.42483 0 0 1 -13.77848,37.47149 l -4.81194,9.51773 -1.77476,3.07397 -1.77476,3.07397 -5.83661,8.92613 a 192.42483,192.42483 0 0 1 -25.56204,30.66825 199.53618,199.53618 0 0 1 -50.72209,36.97681 203.71933,203.71933 0 0 1 -77.47146,21.19148 206.22922,206.22922 0 0 1 -46.10753,-2.36995 200.79113,200.79113 0 0 1 -47.52278,-14.11675 205.39259,205.39259 45 0 1 -44.89742,-26.94619 l -2.265853,-1.99129 A 204.55596,204.55596 0 0 0 138.7683,413.64492 Z M 409.5835,262.26122 a 198.28124,198.28124 0 0 1 -8.29568,25.60867 208.3208,208.3208 0 0 1 -25.51747,45.38074 200.37281,200.37281 0 0 1 -33.69351,35.87858 l -12.92218,9.95855 a 196.60798,196.60798 0 0 0 23.47025,-22.31247 204.13765,204.13765 0 0 0 41.036,-69.89328 207.06585,207.06585 0 0 0 9.8886,-45.52371 202.46439,202.46439 0 0 0 -15.58696,-100.19368 199.9545,199.9545 0 0 0 -12.586,-24.34417 l -7.39692,-11.44322 -8.60909,-11.118412 -3.21126,-3.90333 10.44188,11.493462 a 205.39259,205.39259 45 0 1 25.1062,38.74531 203.30102,203.30102 45 0 1 20.78743,77.57974 195.77135,195.77135 45 0 1 -1.19455,37.56422 z m 3.42362,-43.79143 A 204.55596,204.55596 0 0 0 392.51549,140.37773 207.06585,207.06585 0 0 0 367.70508,101.12009 197.44461,197.44461 0 0 0 339.83624,73.075666 202.46439,202.46439 0 0 0 149.70265,26.14767 c -3.63655,0.974412 -7.2731,1.948822 -11.20544,3.435562 A 214.59552,214.59552 0 0 1 227.10263,12.770623 201.20944,201.20944 0 0 1 414.40114,234.98605 l -2.00476,13.52931 0.21654,0.80813 a 197.02629,197.02629 0 0 0 0.3942,-30.8537 z M 173.08018,16.41911 a 213.75889,213.75889 0 0 0 -47.40466,17.032753 l -5.73612,2.836203 -8.45626,3.998135 A 203.30102,203.30102 45 0 1 173.08018,16.41911 Z M 37.765927,338.93665 A 201.20944,201.20944 0 0 1 14.513744,295.79692 205.39259,205.39259 45 0 1 1.788384,245.07274 198.69955,198.69955 0 0 1 0.624366,218.10113 L 1.3086754,204.49256 2.8011072,190.66745 A 202.04607,202.04607 0 0 1 50.804562,88.59226 197.44461,197.44461 0 0 1 85.39322,57.670687 l -1.39971,1.241194 c -3.499273,3.102984 -6.998537,6.205965 -10.093754,9.200684 A 199.9545,199.9545 0 0 0 55.465767,88.209437 220.45193,220.45193 0 0 0 42.392846,107.30289 l -6.911512,11.3795 a 214.59552,214.59552 0 0 0 11.51429,232.07253 z M 235.18457,438.91269 A 218.36035,218.36035 0 0 1 186.43614,436.38422 213.34057,213.34057 0 0 1 136.16419,421.70491 217.94204,217.94204 0 0 1 88.705116,393.27974 212.08563,212.08563 0 0 1 67.475319,373.85011 l -6.205971,-6.99855 7.418159,6.67375 2.778176,2.28708 14.107437,12.24357 a 205.39259,205.39259 45 0 0 44.89742,26.9462 201.62776,201.62776 45 0 0 47.52278,14.11674 206.64754,206.64754 0 0 0 46.51159,2.26167 204.13765,204.13765 0 0 0 77.47147,-21.19148 199.9545,199.9545 0 0 0 50.83036,-36.57274 192.84315,192.84315 0 0 0 25.45377,-31.07231 l 5.8366,-8.92613 1.77476,-3.07397 1.77476,-3.07398 4.81195,-9.51771 a 192.42483,192.42483 0 0 0 14.18253,-37.57977 l 2.46684,-10.18856 1.90427,-7.43938 2.81288,-13.74586 1.89649,-13.93337 A 202.46439,202.46439 0 0 0 256.88142,15.618203 l 1.21218,-0.324802 c 4.58196,0.937626 9.56796,1.766986 14.25818,3.108675 a 210.83068,210.83068 0 0 1 27.0374,8.778993 220.87024,220.87024 0 0 1 48.34645,26.888176 212.92226,212.92226 0 0 1 38.25269,36.088864 217.94204,217.94204 0 0 1 26.6722,41.357201 215.43215,215.43215 0 0 1 21.57432,82.13268 210.83068,210.83068 0 0 1 -6.19973,65.75577 203.71933,203.71933 0 0 1 -14.85337,39.92488 l -5.10774,10.03004 -1.66649,3.47804 -2.17882,3.18224 -6.13241,9.43845 a 203.30102,203.30102 45 0 1 -27.14926,32.82584 211.249,211.249 0 0 1 -53.84632,38.24701 215.43215,215.43215 0 0 1 -81.91613,22.38243 z"
       id="path47"
       inkscape:connector-curvature="0"
       style="fill:#ffffff;stroke-width:4.18314838" />
    <path
       style="opacity:0.46000001;fill:#fbfbfb;fill-opacity:1;stroke-width:4.18314838"
       inkscape:connector-curvature="0"
       id="path178"
       d="m 319.61303,418.82605 a 211.66731,211.66731 0 0 0 53.84631,-38.24701 204.13765,204.13765 0 0 0 27.14927,-32.82583 l 6.1324,-9.43846 2.17882,-3.18224 1.6665,-3.47803 5.10774,-10.03005 a 204.13765,204.13765 0 0 0 14.85337,-39.92487 211.66731,211.66731 0 0 0 6.60378,-65.86405 216.26878,216.26878 0 0 0 -21.38678,-83.04906 218.77867,218.77867 0 0 0 -26.6722,-41.357211 213.34057,213.34057 0 0 0 -114.14887,-72.051821 c -4.69022,-1.341688 -9.67623,-2.171049 -14.25818,-3.108675 -4.58195,-0.937627 -9.56796,-1.766987 -14.84977,-2.084017 a 208.73911,208.73911 0 0 0 -27.10887,-0.964555 c -5.17354,0.08703 -9.94301,0.06579 -15.00829,0.556887 A 203.30102,203.30102 0 0 0 101.41932,48.983263 200.79113,200.79113 0 0 0 52.18397,89.892404 203.30102,203.30102 0 0 0 3.8847181,192.47993 l -1.896498,13.93338 -0.6842997,13.60857 a 199.53618,199.53618 0 0 0 1.1640181,26.9716 205.39259,205.39259 0 0 0 12.7253575,50.72417 201.62776,201.62776 0 0 0 23.764509,43.43554 207.90248,207.90248 0 0 0 14.923341,18.52101 l 4.56071,5.70711 9.821284,10.7936 a 211.66731,211.66731 0 0 0 21.229797,19.42964 217.94204,217.94204 0 0 0 47.459063,28.42516 213.34057,213.34057 0 0 0 50.38022,15.08337 218.77867,218.77867 0 0 0 49.15249,2.42021 216.26878,216.26878 0 0 0 83.12832,-22.70724 z M 57.575713,362.14882 50.936671,353.53402 A 213.34057,213.34057 0 0 1 27.994712,141.84639 200.37281,200.37281 0 0 0 17.369478,179.7722 200.79113,200.79113 0 0 0 10.95322,244.71986 203.30102,203.30102 0 0 0 49.478941,351.32619 l 8.609098,11.11842 7.959497,8.69405 z M 98.728168,51.869711 105.86399,47.792317 A 215.43215,215.43215 0 0 0 65.351698,82.466479 c 3.686794,-4.019373 7.373589,-8.038746 11.16866,-11.654062 3.795062,-3.615312 6.594481,-6.097699 10.093754,-9.200683 3.499273,-3.102985 7.106805,-5.801906 10.714346,-8.500829 z M 38.571785,131.21699 A 201.20944,201.20944 0 0 1 234.458,31.524653 c 4.47369,0.533567 9.05564,1.471193 13.52932,2.004758 4.47369,0.533566 9.05564,1.471193 13.34179,2.92115 a 199.11787,199.11787 0 0 1 25.60867,8.295676 208.73911,208.73911 0 0 1 45.78481,25.40921 l 7.09335,5.461558 a 197.02629,197.02629 0 0 1 20.55895,21.774739 l 8.20503,11.226676 7.39692,11.44322 a 199.11787,199.11787 0 0 1 12.47773,23.9401 208.3208,208.3208 0 0 1 14.23334,49.88705 200.79113,200.79113 0 0 1 1.54115,49.39026 204.97428,204.97428 0 0 1 -9.59281,45.01138 203.30102,203.30102 0 0 1 -40.63195,69.785 197.02629,197.02629 0 0 1 -29.8772,27.49379 199.53618,199.53618 0 0 1 -96.3753,31.45362 199.11787,199.11787 0 0 1 -61.79443,-5.96195 192.00652,192.00652 0 0 1 -37.47149,-13.77847 l -9.51772,-4.81195 -3.07397,-1.77476 -3.07398,-1.77475 -9.43846,-6.13241 A 192.42483,192.42483 0 0 1 72.713496,357.22652 199.11787,199.11787 0 0 1 36.65309,306.69195 203.71933,203.71933 0 0 1 15.461606,229.22049 206.22922,206.22922 0 0 1 17.37725,186.26619 200.37281,200.37281 0 0 1 38.571785,131.21699 Z M 287.82517,43.209248 a 200.79113,200.79113 0 0 0 -26.01274,-8.187406 c -4.28615,-1.449957 -9.1639,-1.875254 -13.34179,-2.921149 C 244.29274,31.0548 239.415,30.6295 234.53726,30.204201 A 202.8827,202.8827 0 0 0 37.547127,130.6254 201.20944,201.20944 0 0 0 19.865325,171.30815 207.90248,207.90248 0 0 1 31.544233,135.69844 l 4.89121,-10.83816 2.070549,-3.5863 A 212.92226,212.92226 0 0 1 124.68857,38.850642 197.44461,197.44461 0 0 1 151.62339,29.468122 200.79113,200.79113 0 0 1 318.31936,58.42421 214.1772,214.1772 0 0 0 287.82517,43.209248 Z M 67.880317,371.51371 58.679626,361.41996 50.178797,350.7056 a 202.04607,202.04607 0 0 1 -38.013398,-106.31054 198.28124,198.28124 0 0 1 3.120061,-49.77309 207.06585,207.06585 0 0 0 -0.740245,34.41098 204.13765,204.13765 0 0 0 21.299752,77.87554 199.9545,199.9545 0 0 0 36.464472,50.42629 192.84315,192.84315 0 0 0 31.072311,25.45377 l 8.92613,5.83661 3.07397,1.77476 3.07398,1.77476 9.51771,4.81195 a 192.84315,192.84315 0 0 0 37.57977,14.18252 199.9545,199.9545 0 0 0 61.9027,6.36601 204.55596,204.55596 0 0 0 78.09205,-20.49162 l 5.73612,-2.83621 -5.62785,3.24026 a 192.42483,192.42483 0 0 1 -36.65352,16.75043 c -4.3364,1.595 -7.97296,2.56941 -9.99326,3.11075 l -6.86903,1.84055 c -2.42437,0.64961 -5.65686,1.51575 -10.2098,2.30264 a 192.00652,192.00652 0 0 1 -39.60577,4.11626 199.53618,199.53618 0 0 1 -61.66492,-10.32736 204.13765,204.13765 0 0 1 -61.637984,-32.85429 z m 72.483933,44.23948 a 199.53618,199.53618 0 0 0 61.55665,9.9233 192.42483,192.42483 0 0 0 40.11809,-3.82047 c 4.55294,-0.78688 8.18948,-1.76129 10.20979,-2.30263 l 7.27311,-1.94882 c 2.42436,-0.64961 5.65685,-1.51575 9.99325,-3.11076 a 192.42483,192.42483 0 0 0 36.65352,-16.75043 l 10.04351,-6.15571 a 207.06585,207.06585 0 0 0 28.59354,-19.35454 202.46439,202.46439 0 0 0 59.91083,-81.87992 l 4.75393,-12.96674 -1.34168,4.69022 a 192.42483,192.42483 0 0 1 -13.77848,37.47149 l -4.81194,9.51773 -1.77476,3.07397 -1.77476,3.07397 -5.83661,8.92613 a 192.42483,192.42483 0 0 1 -25.56204,30.66825 199.53618,199.53618 0 0 1 -50.72209,36.97681 203.71933,203.71933 0 0 1 -77.47146,21.19148 206.22922,206.22922 0 0 1 -46.10753,-2.36995 200.79113,200.79113 0 0 1 -47.52278,-14.11675 205.39259,205.39259 0 0 1 -44.89742,-26.94619 l -2.265853,-1.99129 A 204.55596,204.55596 0 0 0 140.7683,415.64492 Z M 411.5835,264.26122 a 198.28124,198.28124 0 0 1 -8.29568,25.60867 208.3208,208.3208 0 0 1 -25.51747,45.38074 200.37281,200.37281 0 0 1 -33.69351,35.87858 l -12.92218,9.95855 a 196.60798,196.60798 0 0 0 23.47025,-22.31247 204.13765,204.13765 0 0 0 41.036,-69.89328 207.06585,207.06585 0 0 0 9.8886,-45.52371 202.46439,202.46439 0 0 0 -15.58696,-100.19368 199.9545,199.9545 0 0 0 -12.586,-24.34417 l -7.39692,-11.44322 -8.60909,-11.118412 -3.21126,-3.90333 10.44188,11.493462 a 205.39259,205.39259 0 0 1 25.1062,38.74531 203.30102,203.30102 0 0 1 20.78743,77.57974 195.77135,195.77135 0 0 1 -1.19455,37.56422 z m 3.42362,-43.79143 A 204.55596,204.55596 0 0 0 394.51549,142.37773 207.06585,207.06585 0 0 0 369.70508,103.12009 197.44461,197.44461 0 0 0 341.83624,75.075666 202.46439,202.46439 0 0 0 151.70265,28.14767 c -3.63655,0.974412 -7.2731,1.948822 -11.20544,3.435562 A 214.59552,214.59552 0 0 1 229.10263,14.770623 201.20944,201.20944 0 0 1 416.40114,236.98605 l -2.00476,13.52931 0.21654,0.80813 a 197.02629,197.02629 0 0 0 0.3942,-30.8537 z M 175.08018,18.41911 a 213.75889,213.75889 0 0 0 -47.40466,17.032753 l -5.73612,2.836203 -8.45626,3.998135 A 203.30102,203.30102 0 0 1 175.08018,18.41911 Z M 39.765927,340.93665 A 201.20944,201.20944 0 0 1 16.513744,297.79692 205.39259,205.39259 0 0 1 3.788384,247.07274 198.69955,198.69955 0 0 1 2.624366,220.10113 L 3.3086754,206.49256 4.8011072,192.66745 A 202.04607,202.04607 0 0 1 52.804562,90.59226 197.44461,197.44461 0 0 1 87.39322,59.670687 l -1.39971,1.241194 c -3.499273,3.102984 -6.998537,6.205965 -10.093754,9.200684 A 199.9545,199.9545 0 0 0 57.465767,90.209437 220.45193,220.45193 0 0 0 44.392846,109.30289 l -6.911512,11.3795 a 214.59552,214.59552 0 0 0 11.51429,232.07253 z M 237.18457,440.91269 A 218.36035,218.36035 0 0 1 188.43614,438.38422 213.34057,213.34057 0 0 1 138.16419,423.70491 217.94204,217.94204 0 0 1 90.705116,395.27974 212.08563,212.08563 0 0 1 69.475319,375.85011 l -6.205971,-6.99855 7.418159,6.67375 2.778176,2.28708 14.107437,12.24357 a 205.39259,205.39259 0 0 0 44.89742,26.9462 201.62776,201.62776 0 0 0 47.52278,14.11674 206.64754,206.64754 0 0 0 46.51159,2.26167 204.13765,204.13765 0 0 0 77.47147,-21.19148 199.9545,199.9545 0 0 0 50.83036,-36.57274 192.84315,192.84315 0 0 0 25.45377,-31.07231 l 5.8366,-8.92613 1.77476,-3.07397 1.77476,-3.07398 4.81195,-9.51771 a 192.42483,192.42483 0 0 0 14.18253,-37.57977 l 2.46684,-10.18856 1.90427,-7.43938 2.81288,-13.74586 1.89649,-13.93337 A 202.46439,202.46439 0 0 0 258.88142,17.618203 l 1.21218,-0.324802 c 4.58196,0.937626 9.56796,1.766986 14.25818,3.108675 a 210.83068,210.83068 0 0 1 27.0374,8.778993 220.87024,220.87024 0 0 1 48.34645,26.888176 212.92226,212.92226 0 0 1 38.25269,36.088864 217.94204,217.94204 0 0 1 26.6722,41.357201 215.43215,215.43215 0 0 1 21.57432,82.13268 210.83068,210.83068 0 0 1 -6.19973,65.75577 203.71933,203.71933 0 0 1 -14.85337,39.92488 l -5.10774,10.03004 -1.66649,3.47804 -2.17882,3.18224 -6.13241,9.43845 a 203.30102,203.30102 0 0 1 -27.14926,32.82584 211.249,211.249 0 0 1 -53.84632,38.24701 215.43215,215.43215 0 0 1 -81.91613,22.38243 z" />
  </g>
</svg>
