<?xml version="1.0" encoding="UTF-8" standalone="no"?>
<!-- Created with Inkscape (http://www.inkscape.org/) -->

<svg
   xmlns:dc="http://purl.org/dc/elements/1.1/"
   xmlns:cc="http://creativecommons.org/ns#"
   xmlns:rdf="http://www.w3.org/1999/02/22-rdf-syntax-ns#"
   xmlns:svg="http://www.w3.org/2000/svg"
   xmlns="http://www.w3.org/2000/svg"
   xmlns:sodipodi="http://sodipodi.sourceforge.net/DTD/sodipodi-0.dtd"
   xmlns:inkscape="http://www.inkscape.org/namespaces/inkscape"
   width="79.375pc"
   height="15.625pc"
   viewBox="0 0 336.02083 66.145835"
   version="1.1"
   id="svg838"
   inkscape:version="0.92.2 5c3e80d, 2017-08-06"
   sodipodi:docname="icon-line.svg"
   inkscape:export-filename="/home/aron/Programming/GitHub/cogitare/docs/source/art/icon-line.png"
   inkscape:export-xdpi="96"
   inkscape:export-ydpi="96">
  <defs
     id="defs832" />
  <sodipodi:namedview
     id="base"
     pagecolor="#ffffff"
     bordercolor="#666666"
     borderopacity="1.0"
     inkscape:pageopacity="0"
     inkscape:pageshadow="2"
     inkscape:zoom="0.49497475"
     inkscape:cx="582.58271"
     inkscape:cy="24.97001"
     inkscape:document-units="mm"
     inkscape:current-layer="layer1"
     showgrid="false"
     units="pc"
     inkscape:window-width="1920"
     inkscape:window-height="1034"
     inkscape:window-x="1920"
     inkscape:window-y="22"
     inkscape:window-maximized="0" />
  <metadata
     id="metadata835">
    <rdf:RDF>
      <cc:Work
         rdf:about="">
        <dc:format>image/svg+xml</dc:format>
        <dc:type
           rdf:resource="http://purl.org/dc/dcmitype/StillImage" />
        <dc:title></dc:title>
      </cc:Work>
    </rdf:RDF>
  </metadata>
  <g
     inkscape:label="Layer 1"
     inkscape:groupmode="layer"
     id="layer1"
     transform="translate(0,-230.85414)">
    <g
       id="g869"
       transform="translate(-3.7104787,1.4263761)">
      <g
         style="fill:#002842;fill-opacity:1"
         transform="matrix(0.26458333,0,0,0.26458333,-10.452939,205.12595)"
         id="g175">
        <g
           style="fill:#002842;fill-opacity:1"
           id="g157"
           transform="translate(0,29.480005)">
          <polyline
             transform="matrix(1.452381,0,0,1.452381,144.60233,124.33916)"
             points="66,49 57.7,34.7 66,20.4 82.6,20.4 90.9,34.7 82.6,49 66,49     "
             id="polyline8"
             style="fill:#002842;fill-opacity:1" />
          <polyline
             transform="matrix(1.452381,0,0,1.452381,144.60233,124.33916)"
             points="66,79.7 57.7,65.4 66,51 82.6,51 90.9,65.4 82.6,79.7 66,79.7     "
             id="polyline10"
             style="fill:#002842;fill-opacity:1" />
          <polyline
             transform="matrix(1.452381,0,0,1.452381,144.60233,124.33916)"
             points="40.6,31.8 33.5,19.4 40.6,7 54.9,7 62.1,19.4 54.9,31.8 40.6,31.8     "
             id="polyline12"
             style="fill:#002842;fill-opacity:1" />
          <polyline
             transform="matrix(1.452381,0,0,1.452381,144.60233,124.33916)"
             points="40.6,62.4 33.5,50 40.6,37.7 54.9,37.7 62.1,50 54.9,62.4 40.6,62.4     "
             id="polyline14"
             style="fill:#002842;fill-opacity:1" />
          <polyline
             transform="matrix(1.452381,0,0,1.452381,144.60233,124.33916)"
             points="40.6,93.1 33.5,80.7 40.6,68.3 54.9,68.3 62.1,80.7 54.9,93.1 40.6,93.1     "
             id="polyline16"
             style="fill:#002842;fill-opacity:1" />
          <polyline
             transform="matrix(1.452381,0,0,1.452381,144.60233,124.33916)"
             points="15.2,45.1 9.2,34.7 15.2,24.3 27.2,24.3 33.2,34.7 27.2,45.1 15.2,45.1     "
             id="polyline18"
             style="fill:#002842;fill-opacity:1" />
          <polyline
             transform="matrix(1.452381,0,0,1.452381,144.60233,124.33916)"
             points="9.2,65.4 15.2,54.9 27.2,54.9 33.2,65.4 27.2,75.8 15.2,75.8 9.2,65.4     "
             id="polyline20"
             style="fill:#002842;fill-opacity:1" />
          <polyline
             transform="matrix(1.452381,0,0,1.452381,144.60233,124.33916)"
             points="66,49 57.7,34.7 66,20.4 82.6,20.4 90.9,34.7 82.6,49 66,49     "
             id="polyline24"
             style="fill:#002842;fill-opacity:1" />
          <polyline
             transform="matrix(1.452381,0,0,1.452381,144.60233,124.33916)"
             points="66,79.7 57.7,65.4 66,51 82.6,51 90.9,65.4 82.6,79.7 66,79.7     "
             id="polyline26"
             style="fill:#002842;fill-opacity:1" />
          <polyline
             transform="matrix(1.452381,0,0,1.452381,144.60233,124.33916)"
             points="40.6,31.8 33.5,19.4 40.6,7 54.9,7 62.1,19.4 54.9,31.8 40.6,31.8     "
             id="polyline28"
             style="fill:#002842;fill-opacity:1" />
          <polyline
             transform="matrix(1.452381,0,0,1.452381,144.60233,124.33916)"
             points="40.6,62.4 33.5,50 40.6,37.7 54.9,37.7 62.1,50 54.9,62.4 40.6,62.4     "
             id="polyline30"
             style="fill:#002842;fill-opacity:1" />
          <polyline
             transform="matrix(1.452381,0,0,1.452381,144.60233,124.33916)"
             points="40.6,93.1 33.5,80.7 40.6,68.3 54.9,68.3 62.1,80.7 54.9,93.1 40.6,93.1     "
             id="polyline32"
             style="fill:#002842;fill-opacity:1" />
          <polyline
             transform="matrix(1.452381,0,0,1.452381,144.60233,124.33916)"
             points="15.2,45.1 9.2,34.7 15.2,24.3 27.2,24.3 33.2,34.7 27.2,45.1 15.2,45.1     "
             id="polyline34"
             style="fill:#002842;fill-opacity:1" />
          <polyline
             transform="matrix(1.452381,0,0,1.452381,144.60233,124.33916)"
             points="9.2,65.4 15.2,54.9 27.2,54.9 33.2,65.4 27.2,75.8 15.2,75.8 9.2,65.4     "
             id="polyline36"
             style="fill:#002842;fill-opacity:1" />
        </g>
        <polyline
           transform="matrix(1.3392685,0,0,1.3392685,111.3387,138.98964)"
           points="9.2,65.4 15.2,54.9 27.2,54.9 33.2,65.4 27.2,75.8 15.2,75.8 9.2,65.4     "
           id="polyline119"
           style="fill:#002842;fill-opacity:1" />
      </g>
      <text
         id="text33"
         y="281.57608"
         x="65.780945"
         style="font-style:normal;font-weight:normal;font-size:10.58333302px;line-height:1.25;font-family:sans-serif;letter-spacing:0px;word-spacing:0px;fill:#002842;fill-opacity:1;stroke:none;stroke-width:0.26458332"
         xml:space="preserve"><tspan
           style="font-style:normal;font-variant:normal;font-weight:normal;font-stretch:normal;font-size:50.79999924px;font-family:Arkhip;-inkscape-font-specification:Arkhip;opacity:1;fill:#002842;fill-opacity:1;stroke-width:0.26458332"
           y="281.57608"
           x="65.780945"
           id="tspan31"
           sodipodi:role="line">Cogitare</tspan></text>
    </g>
  </g>
</svg>
